<svg xmlns="http://www.w3.org/2000/svg" width="32" height="32" viewBox="0 0 32 32">
  <defs>
    <linearGradient id="grad1" x1="0%" y1="0%" x2="100%" y2="100%">
      <stop offset="0%" style="stop-color:#4a90e2;stop-opacity:1" />
      <stop offset="100%" style="stop-color:#357abd;stop-opacity:1" />
    </linearGradient>
  </defs>
  
  <!-- Satellite body -->
  <rect x="12" y="10" width="8" height="12" fill="url(#grad1)" rx="1"/>
  
  <!-- Solar panels -->
  <rect x="6" y="12" width="5" height="8" fill="#2c5aa0" rx="0.5"/>
  <rect x="21" y="12" width="5" height="8" fill="#2c5aa0" rx="0.5"/>
  
  <!-- Solar panel lines -->
  <line x1="6.5" y1="14" x2="10.5" y2="14" stroke="#1a4480" stroke-width="0.5"/>
  <line x1="6.5" y1="16" x2="10.5" y2="16" stroke="#1a4480" stroke-width="0.5"/>
  <line x1="6.5" y1="18" x2="10.5" y2="18" stroke="#1a4480" stroke-width="0.5"/>
  
  <line x1="21.5" y1="14" x2="25.5" y2="14" stroke="#1a4480" stroke-width="0.5"/>
  <line x1="21.5" y1="16" x2="25.5" y2="16" stroke="#1a4480" stroke-width="0.5"/>
  <line x1="21.5" y1="18" x2="25.5" y2="18" stroke="#1a4480" stroke-width="0.5"/>
  
  <!-- Antenna -->
  <line x1="16" y1="10" x2="16" y2="6" stroke="#666" stroke-width="1"/>
  <circle cx="16" cy="6" r="1.5" fill="#888"/>
  
  <!-- Signal waves -->
  <path d="M 14 4 Q 16 2 18 4" stroke="#888" stroke-width="0.5" fill="none"/>
  <path d="M 13 3 Q 16 0.5 19 3" stroke="#666" stroke-width="0.5" fill="none"/>
</svg> 