<svg xmlns="http://www.w3.org/2000/svg" viewBox="0 0 32 32" width="32" height="32">
  <!-- 地球 -->
  <circle cx="16" cy="16" r="14" fill="#1e3a8a"/>
  
  <!-- 地球表面 -->
  <path d="M4 16c0-4 2-7.5 4-10 2 2.5 4 6 4 10s-2 7.5-4 10c-2-2.5-4-6-4-10z" fill="#22c55e" opacity="0.4"/>
  
  <!-- 卫星 -->
  <rect x="14" y="6" width="4" height="3" rx="1" fill="#fbbf24" transform="rotate(15 16 7.5)"/>
  
  <!-- 太阳能板 -->
  <rect x="10" y="7" width="3" height="1" rx="0.5" fill="#f59e0b" transform="rotate(15 11.5 7.5)"/>
  <rect x="19" y="7" width="3" height="1" rx="0.5" fill="#f59e0b" transform="rotate(15 20.5 7.5)"/>
  
  <!-- 轨道 -->
  <ellipse cx="16" cy="16" rx="12" ry="10" fill="none" stroke="#fbbf24" stroke-width="1" stroke-dasharray="2,2" opacity="0.7"/>
  
  <!-- 轨道点 -->
  <circle cx="4" cy="16" r="0.8" fill="#fbbf24"/>
  <circle cx="28" cy="16" r="0.8" fill="#fbbf24"/>
  <circle cx="16" cy="6" r="0.8" fill="#fbbf24"/>
  <circle cx="16" cy="26" r="0.8" fill="#fbbf24"/>
</svg>
